<svg width="18" height="17" viewBox="0 0 18 17" fill="none" xmlns="http://www.w3.org/2000/svg">
<g clip-path="url(#clip0_2691_130)">
<path d="M9 4.60417C11.9286 4.60417 14.5405 6.11292 15.8155 8.5C14.5405 10.8871 11.9364 12.3958 9 12.3958C6.06364 12.3958 3.45955 10.8871 2.18455 8.5C3.45955 6.11292 6.07136 4.60417 9 4.60417ZM9 3.1875C5.13636 3.1875 1.83682 5.39042 0.5 8.5C1.83682 11.6096 5.13636 13.8125 9 13.8125C12.8636 13.8125 16.1632 11.6096 17.5 8.5C16.1632 5.39042 12.8636 3.1875 9 3.1875ZM9 6.72917C10.0664 6.72917 10.9318 7.5225 10.9318 8.5C10.9318 9.4775 10.0664 10.2708 9 10.2708C7.93364 10.2708 7.06818 9.4775 7.06818 8.5C7.06818 7.5225 7.93364 6.72917 9 6.72917ZM9 5.3125C7.08364 5.3125 5.52273 6.74333 5.52273 8.5C5.52273 10.2567 7.08364 11.6875 9 11.6875C10.9164 11.6875 12.4773 10.2567 12.4773 8.5C12.4773 6.74333 10.9164 5.3125 9 5.3125Z" fill="#A4A4A4"/>
</g>
<defs>
<clipPath id="clip0_2691_130">
<rect width="17.89" height="17" fill="white"/>
</clipPath>
</defs>
</svg>
